<?xml version="1.0" encoding="UTF-8" standalone="no"?>
<!DOCTYPE svg PUBLIC "-//W3C//DTD SVG 1.1//EN"
 "http://www.w3.org/Graphics/SVG/1.1/DTD/svg11.dtd">
<!-- Generated by graphviz version 2.47.0 (20210316.0004)
 -->
<!-- Title: dependencies Pages: 1 -->
<svg width="676pt" height="287pt"
 viewBox="0.00 0.00 676.00 287.00" xmlns="http://www.w3.org/2000/svg" xmlns:xlink="http://www.w3.org/1999/xlink">
<g id="graph0" class="graph" transform="scale(1 1) rotate(0) translate(4 283)">
<title>dependencies</title>
<polygon fill="white" stroke="transparent" points="-4,4 -4,-283 672,-283 672,4 -4,4"/>
<text text-anchor="start" x="313.01" y="-42.4" font-family="Times-12" font-weight="bold" font-size="14.00">Legend</text>
<polygon fill="#ffffb3" stroke="transparent" points="100,-10 100,-30 120,-30 120,-10 100,-10"/>
<text text-anchor="start" x="123.63" y="-15.4" font-family="Times-12" font-size="14.00"> &#160;Declarations</text>
<polygon fill="#8dd3c7" stroke="transparent" points="213,-10 213,-30 233,-30 233,-10 213,-10"/>
<text text-anchor="start" x="236.73" y="-15.4" font-family="Times-12" font-size="14.00"> &#160;Module</text>
<polygon fill="#80b1d3" stroke="transparent" points="299,-10 299,-30 319,-30 319,-10 299,-10"/>
<text text-anchor="start" x="322.78" y="-15.4" font-family="Times-12" font-size="14.00"> &#160;Bootstrap</text>
<polygon fill="#fdb462" stroke="transparent" points="396,-10 396,-30 416,-30 416,-10 396,-10"/>
<text text-anchor="start" x="419.67" y="-15.4" font-family="Times-12" font-size="14.00"> &#160;Providers</text>
<polygon fill="#fb8072" stroke="transparent" points="492,-10 492,-30 512,-30 512,-10 492,-10"/>
<text text-anchor="start" x="515.73" y="-15.4" font-family="Times-12" font-size="14.00"> &#160;Exports</text>
<g id="clust1" class="cluster">
<title>cluster_AppModule</title>
<polygon fill="none" stroke="black" stroke-dasharray="1,5" points="8,-146 8,-271 660,-271 660,-146 8,-146"/>
</g>
<g id="clust3" class="cluster">
<title>cluster_AppModule_imports</title>
<polygon fill="none" stroke="black" points="154,-154 154,-206 652,-206 652,-154 154,-154"/>
</g>
<g id="clust6" class="cluster">
<title>cluster_AppModule_providers</title>
<polygon fill="none" stroke="black" points="16,-154 16,-206 146,-206 146,-154 16,-154"/>
</g>
<g id="clust19" class="cluster">
<title>cluster_DatabaseModule</title>
<polygon fill="none" stroke="black" stroke-dasharray="1,5" points="8,-70 8,-138 232,-138 232,-70 8,-70"/>
</g>
<g id="clust24" class="cluster">
<title>cluster_DatabaseModule_providers</title>
<polygon fill="none" stroke="black" points="16,-78 16,-130 224,-130 224,-78 16,-78"/>
</g>
<g id="clust25" class="cluster">
<title>cluster_UsersModule</title>
<polygon fill="none" stroke="black" stroke-dasharray="1,5" points="240,-70 240,-138 645,-138 645,-70 240,-70"/>
</g>
<g id="clust30" class="cluster">
<title>cluster_UsersModule_providers</title>
<polygon fill="none" stroke="black" points="248,-78 248,-130 637,-130 637,-78 248,-78"/>
</g>
<!-- AuthModule -->
<g id="node1" class="node">
<title>AuthModule</title>
<polygon fill="#8dd3c7" stroke="black" points="643.55,-198 640.55,-202 619.55,-202 616.55,-198 556.45,-198 556.45,-162 643.55,-162 643.55,-198"/>
<text text-anchor="middle" x="600" y="-175.8" font-family="Times,serif" font-size="14.00">AuthModule</text>
</g>
<!-- AppModule -->
<g id="node5" class="node">
<title>AppModule</title>
<polygon fill="#8dd3c7" stroke="black" points="377.66,-263 374.66,-267 353.66,-267 350.66,-263 294.34,-263 294.34,-227 377.66,-227 377.66,-263"/>
<text text-anchor="middle" x="336" y="-240.8" font-family="Times,serif" font-size="14.00">AppModule</text>
</g>
<!-- AuthModule&#45;&gt;AppModule -->
<g id="edge1" class="edge">
<title>AuthModule&#45;&gt;AppModule</title>
<path fill="none" stroke="black" d="M600,-198.28C600,-219.32 600,-251 600,-251 600,-251 387.83,-251 387.83,-251"/>
<polygon fill="black" stroke="black" points="387.83,-247.5 377.83,-251 387.83,-254.5 387.83,-247.5"/>
</g>
<!-- ConfigurationModule -->
<g id="node2" class="node">
<title>ConfigurationModule</title>
<polygon fill="#8dd3c7" stroke="black" points="538.09,-198 535.09,-202 514.09,-202 511.09,-198 399.91,-198 399.91,-162 538.09,-162 538.09,-198"/>
<text text-anchor="middle" x="469" y="-175.8" font-family="Times,serif" font-size="14.00">ConfigurationModule</text>
</g>
<!-- ConfigurationModule&#45;&gt;AppModule -->
<g id="edge2" class="edge">
<title>ConfigurationModule&#45;&gt;AppModule</title>
<path fill="none" stroke="black" d="M469,-198.02C469,-215.37 469,-239 469,-239 469,-239 387.72,-239 387.72,-239"/>
<polygon fill="black" stroke="black" points="387.72,-235.5 377.72,-239 387.72,-242.5 387.72,-235.5"/>
</g>
<!-- DatabaseModule -->
<g id="node3" class="node">
<title>DatabaseModule</title>
<polygon fill="#8dd3c7" stroke="black" points="272.35,-198 269.35,-202 248.35,-202 245.35,-198 161.65,-198 161.65,-162 272.35,-162 272.35,-198"/>
<text text-anchor="middle" x="217" y="-175.8" font-family="Times,serif" font-size="14.00">DatabaseModule</text>
</g>
<!-- DatabaseModule&#45;&gt;AppModule -->
<g id="edge3" class="edge">
<title>DatabaseModule&#45;&gt;AppModule</title>
<path fill="none" stroke="black" d="M217,-198.02C217,-215.37 217,-239 217,-239 217,-239 284.05,-239 284.05,-239"/>
<polygon fill="black" stroke="black" points="284.05,-242.5 294.05,-239 284.05,-235.5 284.05,-242.5"/>
</g>
<!-- UsersModule -->
<g id="node4" class="node">
<title>UsersModule</title>
<polygon fill="#8dd3c7" stroke="black" points="381.92,-198 378.92,-202 357.92,-202 354.92,-198 290.08,-198 290.08,-162 381.92,-162 381.92,-198"/>
<text text-anchor="middle" x="336" y="-175.8" font-family="Times,serif" font-size="14.00">UsersModule</text>
</g>
<!-- UsersModule&#45;&gt;AppModule -->
<g id="edge4" class="edge">
<title>UsersModule&#45;&gt;AppModule</title>
<path fill="none" stroke="black" d="M336,-198.11C336,-198.11 336,-216.99 336,-216.99"/>
<polygon fill="black" stroke="black" points="332.5,-216.99 336,-226.99 339.5,-216.99 332.5,-216.99"/>
</g>
<!-- AppService -->
<g id="node6" class="node">
<title>AppService</title>
<ellipse fill="#fdb462" stroke="black" cx="81" cy="-180" rx="56.74" ry="18"/>
<text text-anchor="middle" x="81" y="-175.8" font-family="Times,serif" font-size="14.00">AppService</text>
</g>
<!-- AppService&#45;&gt;AppModule -->
<g id="edge5" class="edge">
<title>AppService&#45;&gt;AppModule</title>
<path fill="none" stroke="black" d="M81,-198.28C81,-219.32 81,-251 81,-251 81,-251 284.18,-251 284.18,-251"/>
<polygon fill="black" stroke="black" points="284.18,-254.5 294.18,-251 284.18,-247.5 284.18,-254.5"/>
</g>
<!-- NeonDatabaseService -->
<g id="node7" class="node">
<title>NeonDatabaseService</title>
<ellipse fill="#fdb462" stroke="black" cx="120" cy="-104" rx="96.09" ry="18"/>
<text text-anchor="middle" x="120" y="-99.8" font-family="Times,serif" font-size="14.00">NeonDatabaseService</text>
</g>
<!-- NeonDatabaseService&#45;&gt;DatabaseModule -->
<g id="edge6" class="edge">
<title>NeonDatabaseService&#45;&gt;DatabaseModule</title>
<path fill="none" stroke="black" d="M188.93,-116.89C188.93,-116.89 188.93,-151.91 188.93,-151.91"/>
<polygon fill="black" stroke="black" points="185.43,-151.91 188.93,-161.91 192.43,-151.91 185.43,-151.91"/>
</g>
<!-- ReadOnlyUserService -->
<g id="node8" class="node">
<title>ReadOnlyUserService</title>
<ellipse fill="#fdb462" stroke="black" cx="532" cy="-104" rx="97.25" ry="18"/>
<text text-anchor="middle" x="532" y="-99.8" font-family="Times,serif" font-size="14.00">ReadOnlyUserService</text>
</g>
<!-- ReadOnlyUserService&#45;&gt;UsersModule -->
<g id="edge7" class="edge">
<title>ReadOnlyUserService&#45;&gt;UsersModule</title>
<path fill="none" stroke="black" d="M486.34,-120.34C486.34,-130.64 486.34,-142 486.34,-142 486.34,-142 351.24,-142 351.24,-142 351.24,-142 351.24,-151.89 351.24,-151.89"/>
<polygon fill="black" stroke="black" points="347.74,-151.89 351.24,-161.89 354.74,-151.89 347.74,-151.89"/>
</g>
<!-- WriteUserService -->
<g id="node9" class="node">
<title>WriteUserService</title>
<ellipse fill="#fdb462" stroke="black" cx="336" cy="-104" rx="80.41" ry="18"/>
<text text-anchor="middle" x="336" y="-99.8" font-family="Times,serif" font-size="14.00">WriteUserService</text>
</g>
<!-- WriteUserService&#45;&gt;UsersModule -->
<g id="edge8" class="edge">
<title>WriteUserService&#45;&gt;UsersModule</title>
<path fill="none" stroke="black" d="M320.76,-122.01C320.76,-122.01 320.76,-151.85 320.76,-151.85"/>
<polygon fill="black" stroke="black" points="317.26,-151.85 320.76,-161.85 324.26,-151.85 317.26,-151.85"/>
</g>
</g>
</svg>
