<?xml version="1.0" encoding="UTF-8" standalone="no"?>
<!DOCTYPE svg PUBLIC "-//W3C//DTD SVG 1.1//EN"
 "http://www.w3.org/Graphics/SVG/1.1/DTD/svg11.dtd">
<!-- Generated by graphviz version 2.47.0 (20210316.0004)
 -->
<!-- Title: dependencies Pages: 1 -->
<svg width="676pt" height="287pt"
 viewBox="0.00 0.00 676.00 287.00" xmlns="http://www.w3.org/2000/svg" xmlns:xlink="http://www.w3.org/1999/xlink">
<g id="graph0" class="graph" transform="scale(1 1) rotate(0) translate(4 283)">
<title>dependencies</title>
<polygon fill="white" stroke="transparent" points="-4,4 -4,-283 672,-283 672,4 -4,4"/>
<text text-anchor="start" x="313.01" y="-42.4" font-family="Times-12" font-weight="bold" font-size="14.00">Legend</text>
<polygon fill="#ffffb3" stroke="transparent" points="100,-10 100,-30 120,-30 120,-10 100,-10"/>
<text text-anchor="start" x="123.63" y="-15.4" font-family="Times-12" font-size="14.00"> &#160;Declarations</text>
<polygon fill="#8dd3c7" stroke="transparent" points="213,-10 213,-30 233,-30 233,-10 213,-10"/>
<text text-anchor="start" x="236.73" y="-15.4" font-family="Times-12" font-size="14.00"> &#160;Module</text>
<polygon fill="#80b1d3" stroke="transparent" points="299,-10 299,-30 319,-30 319,-10 299,-10"/>
<text text-anchor="start" x="322.78" y="-15.4" font-family="Times-12" font-size="14.00"> &#160;Bootstrap</text>
<polygon fill="#fdb462" stroke="transparent" points="396,-10 396,-30 416,-30 416,-10 396,-10"/>
<text text-anchor="start" x="419.67" y="-15.4" font-family="Times-12" font-size="14.00"> &#160;Providers</text>
<polygon fill="#fb8072" stroke="transparent" points="492,-10 492,-30 512,-30 512,-10 492,-10"/>
<text text-anchor="start" x="515.73" y="-15.4" font-family="Times-12" font-size="14.00"> &#160;Exports</text>
<g id="clust1" class="cluster">
<title>cluster_AppModule</title>
<polygon fill="none" stroke="black" stroke-dasharray="1,5" points="8,-146 8,-271 660,-271 660,-146 8,-146"/>
</g>
<g id="clust3" class="cluster">
<title>cluster_AppModule_imports</title>
<polygon fill="none" stroke="black" points="154,-154 154,-206 652,-206 652,-154 154,-154"/>
</g>
<g id="clust6" class="cluster">
<title>cluster_AppModule_providers</title>
<polygon fill="none" stroke="black" points="16,-154 16,-206 146,-206 146,-154 16,-154"/>
</g>
<g id="clust25" class="cluster">
<title>cluster_UsersModule</title>
<polygon fill="none" stroke="black" stroke-dasharray="1,5" points="37,-70 37,-138 442,-138 442,-70 37,-70"/>
</g>
<g id="clust30" class="cluster">
<title>cluster_UsersModule_providers</title>
<polygon fill="none" stroke="black" points="45,-78 45,-130 434,-130 434,-78 45,-78"/>
</g>
<!-- AuthModule -->
<g id="node1" class="node">
<title>AuthModule</title>
<polygon fill="#8dd3c7" stroke="black" points="643.55,-198 640.55,-202 619.55,-202 616.55,-198 556.45,-198 556.45,-162 643.55,-162 643.55,-198"/>
<text text-anchor="middle" x="600" y="-175.8" font-family="Times,serif" font-size="14.00">AuthModule</text>
</g>
<!-- AppModule -->
<g id="node5" class="node">
<title>AppModule</title>
<polygon fill="#8dd3c7" stroke="black" points="368.66,-263 365.66,-267 344.66,-267 341.66,-263 285.34,-263 285.34,-227 368.66,-227 368.66,-263"/>
<text text-anchor="middle" x="327" y="-240.8" font-family="Times,serif" font-size="14.00">AppModule</text>
</g>
<!-- AuthModule&#45;&gt;AppModule -->
<g id="edge1" class="edge">
<title>AuthModule&#45;&gt;AppModule</title>
<path fill="none" stroke="black" d="M600,-198.28C600,-219.32 600,-251 600,-251 600,-251 378.76,-251 378.76,-251"/>
<polygon fill="black" stroke="black" points="378.76,-247.5 368.76,-251 378.76,-254.5 378.76,-247.5"/>
</g>
<!-- ConfigurationModule -->
<g id="node2" class="node">
<title>ConfigurationModule</title>
<polygon fill="#8dd3c7" stroke="black" points="538.09,-198 535.09,-202 514.09,-202 511.09,-198 399.91,-198 399.91,-162 538.09,-162 538.09,-198"/>
<text text-anchor="middle" x="469" y="-175.8" font-family="Times,serif" font-size="14.00">ConfigurationModule</text>
</g>
<!-- ConfigurationModule&#45;&gt;AppModule -->
<g id="edge2" class="edge">
<title>ConfigurationModule&#45;&gt;AppModule</title>
<path fill="none" stroke="black" d="M469,-198.02C469,-215.37 469,-239 469,-239 469,-239 378.84,-239 378.84,-239"/>
<polygon fill="black" stroke="black" points="378.84,-235.5 368.84,-239 378.84,-242.5 378.84,-235.5"/>
</g>
<!-- DatabaseModule -->
<g id="node3" class="node">
<title>DatabaseModule</title>
<polygon fill="#8dd3c7" stroke="black" points="382.35,-198 379.35,-202 358.35,-202 355.35,-198 271.65,-198 271.65,-162 382.35,-162 382.35,-198"/>
<text text-anchor="middle" x="327" y="-175.8" font-family="Times,serif" font-size="14.00">DatabaseModule</text>
</g>
<!-- DatabaseModule&#45;&gt;AppModule -->
<g id="edge3" class="edge">
<title>DatabaseModule&#45;&gt;AppModule</title>
<path fill="none" stroke="black" d="M327,-198.11C327,-198.11 327,-216.99 327,-216.99"/>
<polygon fill="black" stroke="black" points="323.5,-216.99 327,-226.99 330.5,-216.99 323.5,-216.99"/>
</g>
<!-- UsersModule -->
<g id="node4" class="node">
<title>UsersModule</title>
<polygon fill="#8dd3c7" stroke="black" points="253.92,-198 250.92,-202 229.92,-202 226.92,-198 162.08,-198 162.08,-162 253.92,-162 253.92,-198"/>
<text text-anchor="middle" x="208" y="-175.8" font-family="Times,serif" font-size="14.00">UsersModule</text>
</g>
<!-- UsersModule&#45;&gt;AppModule -->
<g id="edge4" class="edge">
<title>UsersModule&#45;&gt;AppModule</title>
<path fill="none" stroke="black" d="M208,-198.02C208,-215.37 208,-239 208,-239 208,-239 275.05,-239 275.05,-239"/>
<polygon fill="black" stroke="black" points="275.05,-242.5 285.05,-239 275.05,-235.5 275.05,-242.5"/>
</g>
<!-- AppService -->
<g id="node6" class="node">
<title>AppService</title>
<ellipse fill="#fdb462" stroke="black" cx="81" cy="-180" rx="56.74" ry="18"/>
<text text-anchor="middle" x="81" y="-175.8" font-family="Times,serif" font-size="14.00">AppService</text>
</g>
<!-- AppService&#45;&gt;AppModule -->
<g id="edge5" class="edge">
<title>AppService&#45;&gt;AppModule</title>
<path fill="none" stroke="black" d="M81,-198.28C81,-219.32 81,-251 81,-251 81,-251 275.27,-251 275.27,-251"/>
<polygon fill="black" stroke="black" points="275.27,-254.5 285.27,-251 275.27,-247.5 275.27,-254.5"/>
</g>
<!-- ReadOnlyUserService -->
<g id="node7" class="node">
<title>ReadOnlyUserService</title>
<ellipse fill="#fdb462" stroke="black" cx="329" cy="-104" rx="97.25" ry="18"/>
<text text-anchor="middle" x="329" y="-99.8" font-family="Times,serif" font-size="14.00">ReadOnlyUserService</text>
</g>
<!-- ReadOnlyUserService&#45;&gt;UsersModule -->
<g id="edge6" class="edge">
<title>ReadOnlyUserService&#45;&gt;UsersModule</title>
<path fill="none" stroke="black" d="M242.67,-112.42C242.67,-112.42 242.67,-151.73 242.67,-151.73"/>
<polygon fill="black" stroke="black" points="239.17,-151.73 242.67,-161.73 246.17,-151.73 239.17,-151.73"/>
</g>
<!-- WriteUserService -->
<g id="node8" class="node">
<title>WriteUserService</title>
<ellipse fill="#fdb462" stroke="black" cx="133" cy="-104" rx="80.41" ry="18"/>
<text text-anchor="middle" x="133" y="-99.8" font-family="Times,serif" font-size="14.00">WriteUserService</text>
</g>
<!-- WriteUserService&#45;&gt;UsersModule -->
<g id="edge7" class="edge">
<title>WriteUserService&#45;&gt;UsersModule</title>
<path fill="none" stroke="black" d="M187.75,-117.24C187.75,-117.24 187.75,-151.79 187.75,-151.79"/>
<polygon fill="black" stroke="black" points="184.25,-151.79 187.75,-161.79 191.25,-151.79 184.25,-151.79"/>
</g>
</g>
</svg>
