<?xml version="1.0" encoding="UTF-8" standalone="no"?>
<!DOCTYPE svg PUBLIC "-//W3C//DTD SVG 1.1//EN"
 "http://www.w3.org/Graphics/SVG/1.1/DTD/svg11.dtd">
<!-- Generated by graphviz version 2.47.0 (20210316.0004)
 -->
<!-- Title: dependencies Pages: 1 -->
<svg width="504pt" height="211pt"
 viewBox="0.00 0.00 504.00 211.00" xmlns="http://www.w3.org/2000/svg" xmlns:xlink="http://www.w3.org/1999/xlink">
<g id="graph0" class="graph" transform="scale(1 1) rotate(0) translate(4 207)">
<title>dependencies</title>
<polygon fill="white" stroke="transparent" points="-4,4 -4,-207 500,-207 500,4 -4,4"/>
<text text-anchor="start" x="227.01" y="-42.4" font-family="Times-12" font-weight="bold" font-size="14.00">Legend</text>
<polygon fill="#ffffb3" stroke="transparent" points="14,-10 14,-30 34,-30 34,-10 14,-10"/>
<text text-anchor="start" x="37.63" y="-15.4" font-family="Times-12" font-size="14.00"> &#160;Declarations</text>
<polygon fill="#8dd3c7" stroke="transparent" points="127,-10 127,-30 147,-30 147,-10 127,-10"/>
<text text-anchor="start" x="150.73" y="-15.4" font-family="Times-12" font-size="14.00"> &#160;Module</text>
<polygon fill="#80b1d3" stroke="transparent" points="213,-10 213,-30 233,-30 233,-10 213,-10"/>
<text text-anchor="start" x="236.78" y="-15.4" font-family="Times-12" font-size="14.00"> &#160;Bootstrap</text>
<polygon fill="#fdb462" stroke="transparent" points="310,-10 310,-30 330,-30 330,-10 310,-10"/>
<text text-anchor="start" x="333.67" y="-15.4" font-family="Times-12" font-size="14.00"> &#160;Providers</text>
<polygon fill="#fb8072" stroke="transparent" points="406,-10 406,-30 426,-30 426,-10 406,-10"/>
<text text-anchor="start" x="429.73" y="-15.4" font-family="Times-12" font-size="14.00"> &#160;Exports</text>
<g id="clust1" class="cluster">
<title>cluster_UsersModule</title>
<polygon fill="none" stroke="black" stroke-dasharray="1,5" points="45.5,-70 45.5,-195 450.5,-195 450.5,-70 45.5,-70"/>
</g>
<g id="clust6" class="cluster">
<title>cluster_UsersModule_providers</title>
<polygon fill="none" stroke="black" points="53.5,-78 53.5,-130 442.5,-130 442.5,-78 53.5,-78"/>
</g>
<!-- ReadOnlyUserService -->
<g id="node1" class="node">
<title>ReadOnlyUserService</title>
<ellipse fill="#fdb462" stroke="black" cx="337.5" cy="-104" rx="97.25" ry="18"/>
<text text-anchor="middle" x="337.5" y="-99.8" font-family="Times,serif" font-size="14.00">ReadOnlyUserService</text>
</g>
<!-- UsersModule -->
<g id="node3" class="node">
<title>UsersModule</title>
<polygon fill="#8dd3c7" stroke="black" points="285.42,-187 282.42,-191 261.42,-191 258.42,-187 193.58,-187 193.58,-151 285.42,-151 285.42,-187"/>
<text text-anchor="middle" x="239.5" y="-164.8" font-family="Times,serif" font-size="14.00">UsersModule</text>
</g>
<!-- ReadOnlyUserService&#45;&gt;UsersModule -->
<g id="edge1" class="edge">
<title>ReadOnlyUserService&#45;&gt;UsersModule</title>
<path fill="none" stroke="black" d="M262.67,-115.62C262.67,-115.62 262.67,-140.85 262.67,-140.85"/>
<polygon fill="black" stroke="black" points="259.17,-140.85 262.67,-150.85 266.17,-140.85 259.17,-140.85"/>
</g>
<!-- WriteUserService -->
<g id="node2" class="node">
<title>WriteUserService</title>
<ellipse fill="#fdb462" stroke="black" cx="141.5" cy="-104" rx="80.41" ry="18"/>
<text text-anchor="middle" x="141.5" y="-99.8" font-family="Times,serif" font-size="14.00">WriteUserService</text>
</g>
<!-- WriteUserService&#45;&gt;UsersModule -->
<g id="edge2" class="edge">
<title>WriteUserService&#45;&gt;UsersModule</title>
<path fill="none" stroke="black" d="M207.75,-114.16C207.75,-114.16 207.75,-140.81 207.75,-140.81"/>
<polygon fill="black" stroke="black" points="204.25,-140.81 207.75,-150.81 211.25,-140.81 204.25,-140.81"/>
</g>
</g>
</svg>
