<?xml version="1.0" encoding="UTF-8" standalone="no"?>
<!DOCTYPE svg PUBLIC "-//W3C//DTD SVG 1.1//EN"
 "http://www.w3.org/Graphics/SVG/1.1/DTD/svg11.dtd">
<!-- Generated by graphviz version 2.47.0 (20210316.0004)
 -->
<!-- Title: dependencies Pages: 1 -->
<svg width="504pt" height="211pt"
 viewBox="0.00 0.00 504.00 211.00" xmlns="http://www.w3.org/2000/svg" xmlns:xlink="http://www.w3.org/1999/xlink">
<g id="graph0" class="graph" transform="scale(1 1) rotate(0) translate(4 207)">
<title>dependencies</title>
<polygon fill="white" stroke="transparent" points="-4,4 -4,-207 500,-207 500,4 -4,4"/>
<text text-anchor="start" x="227.01" y="-42.4" font-family="Times-12" font-weight="bold" font-size="14.00">Legend</text>
<polygon fill="#ffffb3" stroke="transparent" points="14,-10 14,-30 34,-30 34,-10 14,-10"/>
<text text-anchor="start" x="37.63" y="-15.4" font-family="Times-12" font-size="14.00"> &#160;Declarations</text>
<polygon fill="#8dd3c7" stroke="transparent" points="127,-10 127,-30 147,-30 147,-10 127,-10"/>
<text text-anchor="start" x="150.73" y="-15.4" font-family="Times-12" font-size="14.00"> &#160;Module</text>
<polygon fill="#80b1d3" stroke="transparent" points="213,-10 213,-30 233,-30 233,-10 213,-10"/>
<text text-anchor="start" x="236.78" y="-15.4" font-family="Times-12" font-size="14.00"> &#160;Bootstrap</text>
<polygon fill="#fdb462" stroke="transparent" points="310,-10 310,-30 330,-30 330,-10 310,-10"/>
<text text-anchor="start" x="333.67" y="-15.4" font-family="Times-12" font-size="14.00"> &#160;Providers</text>
<polygon fill="#fb8072" stroke="transparent" points="406,-10 406,-30 426,-30 426,-10 406,-10"/>
<text text-anchor="start" x="429.73" y="-15.4" font-family="Times-12" font-size="14.00"> &#160;Exports</text>
<g id="clust1" class="cluster">
<title>cluster_AppModule</title>
<polygon fill="none" stroke="black" stroke-dasharray="1,5" points="30,-70 30,-195 466,-195 466,-70 30,-70"/>
</g>
<g id="clust3" class="cluster">
<title>cluster_AppModule_imports</title>
<polygon fill="none" stroke="black" points="176,-78 176,-130 458,-130 458,-78 176,-78"/>
</g>
<g id="clust6" class="cluster">
<title>cluster_AppModule_providers</title>
<polygon fill="none" stroke="black" points="38,-78 38,-130 168,-130 168,-78 38,-78"/>
</g>
<!-- ConfigurationModule -->
<g id="node1" class="node">
<title>ConfigurationModule</title>
<polygon fill="#8dd3c7" stroke="black" points="450.09,-122 447.09,-126 426.09,-126 423.09,-122 311.91,-122 311.91,-86 450.09,-86 450.09,-122"/>
<text text-anchor="middle" x="381" y="-99.8" font-family="Times,serif" font-size="14.00">ConfigurationModule</text>
</g>
<!-- AppModule -->
<g id="node3" class="node">
<title>AppModule</title>
<polygon fill="#8dd3c7" stroke="black" points="280.66,-187 277.66,-191 256.66,-191 253.66,-187 197.34,-187 197.34,-151 280.66,-151 280.66,-187"/>
<text text-anchor="middle" x="239" y="-164.8" font-family="Times,serif" font-size="14.00">AppModule</text>
</g>
<!-- ConfigurationModule&#45;&gt;AppModule -->
<g id="edge1" class="edge">
<title>ConfigurationModule&#45;&gt;AppModule</title>
<path fill="none" stroke="black" d="M381,-122.11C381,-141.34 381,-169 381,-169 381,-169 290.84,-169 290.84,-169"/>
<polygon fill="black" stroke="black" points="290.84,-165.5 280.84,-169 290.84,-172.5 290.84,-165.5"/>
</g>
<!-- DatabaseModule -->
<g id="node2" class="node">
<title>DatabaseModule</title>
<polygon fill="#8dd3c7" stroke="black" points="294.35,-122 291.35,-126 270.35,-126 267.35,-122 183.65,-122 183.65,-86 294.35,-86 294.35,-122"/>
<text text-anchor="middle" x="239" y="-99.8" font-family="Times,serif" font-size="14.00">DatabaseModule</text>
</g>
<!-- DatabaseModule&#45;&gt;AppModule -->
<g id="edge2" class="edge">
<title>DatabaseModule&#45;&gt;AppModule</title>
<path fill="none" stroke="black" d="M239,-122.11C239,-122.11 239,-140.99 239,-140.99"/>
<polygon fill="black" stroke="black" points="235.5,-140.99 239,-150.99 242.5,-140.99 235.5,-140.99"/>
</g>
<!-- AppService -->
<g id="node4" class="node">
<title>AppService</title>
<ellipse fill="#fdb462" stroke="black" cx="103" cy="-104" rx="56.74" ry="18"/>
<text text-anchor="middle" x="103" y="-99.8" font-family="Times,serif" font-size="14.00">AppService</text>
</g>
<!-- AppService&#45;&gt;AppModule -->
<g id="edge3" class="edge">
<title>AppService&#45;&gt;AppModule</title>
<path fill="none" stroke="black" d="M103,-122.11C103,-141.34 103,-169 103,-169 103,-169 187.09,-169 187.09,-169"/>
<polygon fill="black" stroke="black" points="187.09,-172.5 197.09,-169 187.09,-165.5 187.09,-172.5"/>
</g>
</g>
</svg>
