<?xml version="1.0" encoding="UTF-8" standalone="no"?>
<!DOCTYPE svg PUBLIC "-//W3C//DTD SVG 1.1//EN"
 "http://www.w3.org/Graphics/SVG/1.1/DTD/svg11.dtd">
<!-- Generated by graphviz version 2.47.0 (20210316.0004)
 -->
<!-- Title: dependencies Pages: 1 -->
<svg width="676pt" height="211pt"
 viewBox="0.00 0.00 676.00 211.00" xmlns="http://www.w3.org/2000/svg" xmlns:xlink="http://www.w3.org/1999/xlink">
<g id="graph0" class="graph" transform="scale(1 1) rotate(0) translate(4 207)">
<title>dependencies</title>
<polygon fill="white" stroke="transparent" points="-4,4 -4,-207 672,-207 672,4 -4,4"/>
<text text-anchor="start" x="313.01" y="-42.4" font-family="Times-12" font-weight="bold" font-size="14.00">Legend</text>
<polygon fill="#ffffb3" stroke="transparent" points="100,-10 100,-30 120,-30 120,-10 100,-10"/>
<text text-anchor="start" x="123.63" y="-15.4" font-family="Times-12" font-size="14.00"> &#160;Declarations</text>
<polygon fill="#8dd3c7" stroke="transparent" points="213,-10 213,-30 233,-30 233,-10 213,-10"/>
<text text-anchor="start" x="236.73" y="-15.4" font-family="Times-12" font-size="14.00"> &#160;Module</text>
<polygon fill="#80b1d3" stroke="transparent" points="299,-10 299,-30 319,-30 319,-10 299,-10"/>
<text text-anchor="start" x="322.78" y="-15.4" font-family="Times-12" font-size="14.00"> &#160;Bootstrap</text>
<polygon fill="#fdb462" stroke="transparent" points="396,-10 396,-30 416,-30 416,-10 396,-10"/>
<text text-anchor="start" x="419.67" y="-15.4" font-family="Times-12" font-size="14.00"> &#160;Providers</text>
<polygon fill="#fb8072" stroke="transparent" points="492,-10 492,-30 512,-30 512,-10 492,-10"/>
<text text-anchor="start" x="515.73" y="-15.4" font-family="Times-12" font-size="14.00"> &#160;Exports</text>
<g id="clust1" class="cluster">
<title>cluster_AppModule</title>
<polygon fill="none" stroke="black" stroke-dasharray="1,5" points="8,-70 8,-195 660,-195 660,-70 8,-70"/>
</g>
<g id="clust3" class="cluster">
<title>cluster_AppModule_imports</title>
<polygon fill="none" stroke="black" points="154,-78 154,-130 652,-130 652,-78 154,-78"/>
</g>
<g id="clust6" class="cluster">
<title>cluster_AppModule_providers</title>
<polygon fill="none" stroke="black" points="16,-78 16,-130 146,-130 146,-78 16,-78"/>
</g>
<!-- AuthModule -->
<g id="node1" class="node">
<title>AuthModule</title>
<polygon fill="#8dd3c7" stroke="black" points="643.55,-122 640.55,-126 619.55,-126 616.55,-122 556.45,-122 556.45,-86 643.55,-86 643.55,-122"/>
<text text-anchor="middle" x="600" y="-99.8" font-family="Times,serif" font-size="14.00">AuthModule</text>
</g>
<!-- AppModule -->
<g id="node5" class="node">
<title>AppModule</title>
<polygon fill="#8dd3c7" stroke="black" points="368.66,-187 365.66,-191 344.66,-191 341.66,-187 285.34,-187 285.34,-151 368.66,-151 368.66,-187"/>
<text text-anchor="middle" x="327" y="-164.8" font-family="Times,serif" font-size="14.00">AppModule</text>
</g>
<!-- AuthModule&#45;&gt;AppModule -->
<g id="edge1" class="edge">
<title>AuthModule&#45;&gt;AppModule</title>
<path fill="none" stroke="black" d="M600,-122.28C600,-143.32 600,-175 600,-175 600,-175 378.76,-175 378.76,-175"/>
<polygon fill="black" stroke="black" points="378.76,-171.5 368.76,-175 378.76,-178.5 378.76,-171.5"/>
</g>
<!-- ConfigurationModule -->
<g id="node2" class="node">
<title>ConfigurationModule</title>
<polygon fill="#8dd3c7" stroke="black" points="538.09,-122 535.09,-126 514.09,-126 511.09,-122 399.91,-122 399.91,-86 538.09,-86 538.09,-122"/>
<text text-anchor="middle" x="469" y="-99.8" font-family="Times,serif" font-size="14.00">ConfigurationModule</text>
</g>
<!-- ConfigurationModule&#45;&gt;AppModule -->
<g id="edge2" class="edge">
<title>ConfigurationModule&#45;&gt;AppModule</title>
<path fill="none" stroke="black" d="M469,-122.02C469,-139.37 469,-163 469,-163 469,-163 378.84,-163 378.84,-163"/>
<polygon fill="black" stroke="black" points="378.84,-159.5 368.84,-163 378.84,-166.5 378.84,-159.5"/>
</g>
<!-- DatabaseModule -->
<g id="node3" class="node">
<title>DatabaseModule</title>
<polygon fill="#8dd3c7" stroke="black" points="382.35,-122 379.35,-126 358.35,-126 355.35,-122 271.65,-122 271.65,-86 382.35,-86 382.35,-122"/>
<text text-anchor="middle" x="327" y="-99.8" font-family="Times,serif" font-size="14.00">DatabaseModule</text>
</g>
<!-- DatabaseModule&#45;&gt;AppModule -->
<g id="edge3" class="edge">
<title>DatabaseModule&#45;&gt;AppModule</title>
<path fill="none" stroke="black" d="M327,-122.11C327,-122.11 327,-140.99 327,-140.99"/>
<polygon fill="black" stroke="black" points="323.5,-140.99 327,-150.99 330.5,-140.99 323.5,-140.99"/>
</g>
<!-- UsersModule -->
<g id="node4" class="node">
<title>UsersModule</title>
<polygon fill="#8dd3c7" stroke="black" points="253.92,-122 250.92,-126 229.92,-126 226.92,-122 162.08,-122 162.08,-86 253.92,-86 253.92,-122"/>
<text text-anchor="middle" x="208" y="-99.8" font-family="Times,serif" font-size="14.00">UsersModule</text>
</g>
<!-- UsersModule&#45;&gt;AppModule -->
<g id="edge4" class="edge">
<title>UsersModule&#45;&gt;AppModule</title>
<path fill="none" stroke="black" d="M208,-122.02C208,-139.37 208,-163 208,-163 208,-163 275.05,-163 275.05,-163"/>
<polygon fill="black" stroke="black" points="275.05,-166.5 285.05,-163 275.05,-159.5 275.05,-166.5"/>
</g>
<!-- AppService -->
<g id="node6" class="node">
<title>AppService</title>
<ellipse fill="#fdb462" stroke="black" cx="81" cy="-104" rx="56.74" ry="18"/>
<text text-anchor="middle" x="81" y="-99.8" font-family="Times,serif" font-size="14.00">AppService</text>
</g>
<!-- AppService&#45;&gt;AppModule -->
<g id="edge5" class="edge">
<title>AppService&#45;&gt;AppModule</title>
<path fill="none" stroke="black" d="M81,-122.28C81,-143.32 81,-175 81,-175 81,-175 275.27,-175 275.27,-175"/>
<polygon fill="black" stroke="black" points="275.27,-178.5 285.27,-175 275.27,-171.5 275.27,-178.5"/>
</g>
</g>
</svg>
